<?xml version="1.0" encoding="UTF-8" standalone="no"?>
<!-- Created with Inkscape (http://www.inkscape.org/) -->

<svg
   xmlns:dc="http://purl.org/dc/elements/1.1/"
   xmlns:cc="http://creativecommons.org/ns#"
   xmlns:rdf="http://www.w3.org/1999/02/22-rdf-syntax-ns#"
   xmlns:svg="http://www.w3.org/2000/svg"
   xmlns="http://www.w3.org/2000/svg"
   xmlns:sodipodi="http://sodipodi.sourceforge.net/DTD/sodipodi-0.dtd"
   xmlns:inkscape="http://www.inkscape.org/namespaces/inkscape"
   width="960.00006"
   height="400"
   id="svg5079"
   version="1.1"
   inkscape:version="0.47 r22583"
   sodipodi:docname="chip-40-patas.svg">
  <defs
     id="defs5081">
    <inkscape:perspective
       sodipodi:type="inkscape:persp3d"
       inkscape:vp_x="0 : 526.18109 : 1"
       inkscape:vp_y="0 : 1000 : 0"
       inkscape:vp_z="744.09448 : 526.18109 : 1"
       inkscape:persp3d-origin="372.04724 : 350.78739 : 1"
       id="perspective5087" />
    <inkscape:perspective
       id="perspective5068"
       inkscape:persp3d-origin="0.5 : 0.33333333 : 1"
       inkscape:vp_z="1 : 0.5 : 1"
       inkscape:vp_y="0 : 1000 : 0"
       inkscape:vp_x="0 : 0.5 : 1"
       sodipodi:type="inkscape:persp3d" />
  </defs>
  <sodipodi:namedview
     id="base"
     pagecolor="#ffffff"
     bordercolor="#666666"
     borderopacity="1.0"
     inkscape:pageopacity="0.0"
     inkscape:pageshadow="2"
     inkscape:zoom="0.49497475"
     inkscape:cx="505.92723"
     inkscape:cy="157.86244"
     inkscape:document-units="px"
     inkscape:current-layer="layer1"
     showgrid="false"
     inkscape:window-width="1437"
     inkscape:window-height="848"
     inkscape:window-x="1"
     inkscape:window-y="0"
     inkscape:window-maximized="1" />
  <metadata
     id="metadata5084">
    <rdf:RDF>
      <cc:Work
         rdf:about="">
        <dc:format>image/svg+xml</dc:format>
        <dc:type
           rdf:resource="http://purl.org/dc/dcmitype/StillImage" />
        <dc:title></dc:title>
      </cc:Work>
    </rdf:RDF>
  </metadata>
  <g
     inkscape:label="Capa 1"
     inkscape:groupmode="layer"
     id="layer1"
     transform="translate(-124.2857,-326.65625)">
    <g
       id="g5129">
      <g
         transform="matrix(8.4484014,0,0,8.4484014,124.2857,326.64787)"
         id="g4912"
         style="fill-rule:evenodd">
        <path
           sodipodi:nodetypes="cccccccscccc"
           style="fill:#333333;fill-opacity:1;stroke:#000000;stroke-width:0.35509673;stroke-miterlimit:4;stroke-dasharray:none"
           d="m 111.47537,5.406711 c 1.09532,0 1.97805,0.866951 1.97805,1.942694 l 0,32.647429 c 0,1.075742 -0.88273,1.942697 -1.97805,1.942697 l -109.3197727,0 c -1.095321,0 -1.97804903,-0.866955 -1.97804903,-1.942697 l 0,-12.728458 C 2.1141833,27.165415 3.6584003,25.600839 3.6584003,23.673124 c 0,-1.927715 -1.544217,-3.492305 -3.48085203,-3.595256 l 0,-12.72846 c 0,-1.075742 0.88272803,-1.942697 1.97804903,-1.942697 l 109.3197727,0 z"
           id="rect3922" />
        <path
           sodipodi:nodetypes="ccccccccc"
           id="rect4910"
           d="m 6.9460366,7.0439639 101.1592934,0 c 1.44917,0 2.61582,1.1666571 2.61582,2.615823 l 0,28.0266701 c 0,1.449166 -1.16665,2.615823 -2.61582,2.615823 l -101.1592934,0 c -1.449166,0 -2.6158231,-1.166657 -2.6158231,-2.615823 l 0,-28.0266701 c 0,-1.4491659 1.1666571,-2.615823 2.6158231,-2.615823 z"
           style="fill:#cccccc;fill-opacity:1;stroke:#000000;stroke-width:0.23673119;stroke-linecap:round;stroke-linejoin:miter;stroke-miterlimit:4;stroke-opacity:1" />
      </g>
      <path
         id="path4952"
         d="m 160.91069,327.65625 0,6.0625 -8.5625,26.375 0,12.25 37.8125,0 0,-12.25 -8.53125,-26.375 0,-6.0625 -20.71875,0 z m 45.5625,0 0,6.0625 -8.5625,26.375 0,12.25 37.8125,0 0,-12.25 -8.53125,-26.375 0,-6.0625 -20.71875,0 z m 45.53125,0 0,6.0625 -8.53125,26.375 0,12.25 37.8125,0 0,-12.25 -8.53125,-26.375 0,-6.0625 -20.75,0 z m 45.5625,0 0,6.0625 -8.53125,26.375 0,12.25 37.8125,0 0,-12.25 -8.53125,-26.375 0,-6.0625 -20.75,0 z m 45.5625,0 0,6.0625 -8.53125,26.375 0,12.25 37.8125,0 0,-12.25 -8.53125,-26.375 0,-6.0625 -20.75,0 z m 45.5625,0 0,6.0625 -8.53125,26.375 0,12.25 37.8125,0 0,-12.25 -8.53125,-26.375 0,-6.0625 -20.75,0 z m 45.5625,0 0,6.0625 -8.53125,26.375 0,12.25 37.8125,0 0,-12.25 -8.53125,-26.375 0,-6.0625 -20.75,0 z m 45.5625,0 0,6.0625 -8.53125,26.375 0,12.25 37.8125,0 0,-12.25 -8.53125,-26.375 0,-6.0625 -20.75,0 z m 45.5625,0 0,6.0625 -8.53125,26.375 0,12.25 37.8125,0 0,-12.25 -8.5625,-26.375 0,-6.0625 -20.71875,0 z m 45.5625,0 0,6.0625 -8.53125,26.375 0,12.25 37.8125,0 0,-12.25 -8.5625,-26.375 0,-6.0625 -20.71875,0 z m 45.96875,0 0,6.0625 -8.5625,26.375 0,12.25 37.8125,0 0,-12.25 -8.53125,-26.375 0,-6.0625 -20.71875,0 z m 45.5625,0 0,6.0625 -8.5625,26.375 0,12.25 37.8125,0 0,-12.25 -8.53125,-26.375 0,-6.0625 -20.71875,0 z m 45.53125,0 0,6.0625 -8.53125,26.375 0,12.25 37.8125,0 0,-12.25 -8.53125,-26.375 0,-6.0625 -20.75,0 z m 45.5625,0 0,6.0625 -8.53125,26.375 0,12.25 37.8125,0 0,-12.25 -8.53125,-26.375 0,-6.0625 -20.75,0 z m 45.5625,0 0,6.0625 -8.53125,26.375 0,12.25 37.8125,0 0,-12.25 -8.53125,-26.375 0,-6.0625 -20.75,0 z m 45.5625,0 0,6.0625 -8.53125,26.375 0,12.25 37.8125,0 0,-12.25 -8.53125,-26.375 0,-6.0625 -20.75,0 z m 45.5625,0 0,6.0625 -8.53125,26.375 0,12.25 37.8125,0 0,-12.25 -8.53125,-26.375 0,-6.0625 -20.75,0 z m 45.5625,0 0,6.0625 -8.53125,26.375 0,12.25 37.8125,0 0,-12.25 -8.53125,-26.375 0,-6.0625 -20.75,0 z m 45.5625,0 0,6.0625 -8.53125,26.375 0,12.25 37.81241,0 0,-12.25 -8.5624,-26.375 0,-6.0625 -20.71876,0 z m 45.56246,0 0,6.0625 -8.5313,26.375 0,12.25 37.8126,0 0,-12.25 -8.5626,-26.375 0,-6.0625 -20.7187,0 z"
         style="fill:#999999;fill-opacity:1;fill-rule:evenodd;stroke:#000000;stroke-width:2;stroke-miterlimit:4;stroke-opacity:1;stroke-dasharray:none" />
      <path
         id="path4974"
         d="m 152.34819,680.96875 0,12.25 8.5625,26.375 0,6.0625 20.71875,0 0,-6.0625 8.53125,-26.375 0,-12.25 -37.8125,0 z m 45.5625,0 0,12.25 8.5625,26.375 0,6.0625 20.71875,0 0,-6.0625 8.53125,-26.375 0,-12.25 -37.8125,0 z m 45.5625,0 0,12.25 8.53125,26.375 0,6.0625 20.75,0 0,-6.0625 8.53125,-26.375 0,-12.25 -37.8125,0 z m 45.5625,0 0,12.25 8.53125,26.375 0,6.0625 20.75,0 0,-6.0625 8.53125,-26.375 0,-12.25 -37.8125,0 z m 45.5625,0 0,12.25 8.53125,26.375 0,6.0625 20.75,0 0,-6.0625 8.53125,-26.375 0,-12.25 -37.8125,0 z m 45.5625,0 0,12.25 8.53125,26.375 0,6.0625 20.75,0 0,-6.0625 8.53125,-26.375 0,-12.25 -37.8125,0 z m 45.5625,0 0,12.25 8.53125,26.375 0,6.0625 20.75,0 0,-6.0625 8.53125,-26.375 0,-12.25 -37.8125,0 z m 45.5625,0 0,12.25 8.53125,26.375 0,6.0625 20.75,0 0,-6.0625 8.53125,-26.375 0,-12.25 -37.8125,0 z m 45.5625,0 0,12.25 8.53125,26.375 0,6.0625 20.71875,0 0,-6.0625 8.5625,-26.375 0,-12.25 -37.8125,0 z m 45.5625,0 0,12.25 8.53125,26.375 0,6.0625 20.71875,0 0,-6.0625 8.5625,-26.375 0,-12.25 -37.8125,0 z m 45.9375,0 0,12.25 8.5625,26.375 0,6.0625 20.71875,0 0,-6.0625 8.53125,-26.375 0,-12.25 -37.8125,0 z m 45.5625,0 0,12.25 8.5625,26.375 0,6.0625 20.71875,0 0,-6.0625 8.53125,-26.375 0,-12.25 -37.8125,0 z m 45.5625,0 0,12.25 8.53125,26.375 0,6.0625 20.75,0 0,-6.0625 8.53125,-26.375 0,-12.25 -37.8125,0 z m 45.5625,0 0,12.25 8.53125,26.375 0,6.0625 20.75,0 0,-6.0625 8.53125,-26.375 0,-12.25 -37.8125,0 z m 45.5625,0 0,12.25 8.53125,26.375 0,6.0625 20.75,0 0,-6.0625 8.53125,-26.375 0,-12.25 -37.8125,0 z m 45.5625,0 0,12.25 8.53125,26.375 0,6.0625 20.75,0 0,-6.0625 8.53125,-26.375 0,-12.25 -37.8125,0 z m 45.5625,0 0,12.25 8.53125,26.375 0,6.0625 20.75,0 0,-6.0625 8.53125,-26.375 0,-12.25 -37.8125,0 z m 45.5625,0 0,12.25 8.53125,26.375 0,6.0625 20.75,0 0,-6.0625 8.53125,-26.375 0,-12.25 -37.8125,0 z m 45.5625,0 0,12.25 8.53125,26.375 0,6.0625 20.71876,0 0,-6.0625 8.5624,-26.375 0,-12.25 -37.81241,0 z m 45.56241,0 0,12.25 8.5313,26.375 0,6.0625 20.7187,0 0,-6.0625 8.5626,-26.375 0,-12.25 -37.8126,0 z"
         style="fill:#999999;fill-opacity:1;fill-rule:evenodd;stroke:#000000;stroke-width:2;stroke-miterlimit:4;stroke-opacity:1;stroke-dasharray:none" />
    </g>
  </g>
</svg>
